Patient4_TMGait_0pt5_02_right_42_EMG.mot
version=1
nRows=40
nColumns=33
inDegrees=no
endheader
time	1LAddLong	2LGlutMax	3LGlutMed	4LIliopsoas	5LSemiMemb	6LBicFemLong	7LRecFem	8LVastMed	9LVastLat	10LGasMed	11LTibAnt	12lTibPost	13LPeroneusLong	14LSol	15LExtDigLong	16LFlexDigLong	17RAddLong	18RGlutMax	19RGlutMed	20RIliopsoas	21RSemiMemb	22RBicFemLong	23RRecFem	24RVastMed	25RVastLat	26RGasMed	27RTibAnt	28RTibPost	29RPeroneusLong	30RSol	31RExtDigLong	32RFlexDigLong
55.76	-0.042572	-0.045929	0.081787	-0.000153	-0.14069	-0.001068	-0.099335	-0.002289	-0.047455	0.078735	-0.021973	-0.003815	-0.11337	-0.022278	0.010834	0.014191	-0.072327	0.089874	0.26077	-0.030518	-0.004578	0.078278	-0.053253	0.054932	0.047913	-0.039215	0.066833	-0.000153	0.036774	-0.37384	-0.001984	-0.010223
55.761	0.005188	-0.031281	0.076294	-0.004578	0.012054	-0.056458	-0.046844	-0.030212	0.02594	-0.13901	-0.002136	0.002441	0.074158	-0.012054	0.000153	0.005035	-0.10193	0.12085	0.056458	-0.050049	0.31845	-0.021515	-0.013428	0.02243	0.037537	-0.031281	-0.031128	0	0.027161	-0.2005	0.006104	-0.010071
55.762	0.046234	0.071716	0.030823	-0.012512	0.11231	-0.12833	-0.001678	-0.041656	0.043488	-0.21759	-0.01297	-0.005341	0.007019	0.047607	0.014801	0.013123	-0.082703	0.074005	0.055847	-0.046234	0.24185	-0.12894	-0.012817	-0.006866	0.041656	-0.02243	0.054779	-0.001984	0.000763	0.41458	-0.003052	-0.003967
55.763	0.056915	0.10071	0.029297	0.001526	0.18143	-0.16586	-0.015411	-0.035706	-0.033875	-0.093384	-0.016327	0.000305	0.080414	0.004272	-0.003662	0.005951	-0.056763	0.01358	-0.086823	-0.072327	0.12878	-0.13916	0.04425	-0.043335	0.03006	0.016327	-0.31097	-0.009155	0.062103	0.38238	-0.002441	-0.013123
55.764	0.059052	0.07843	0.029449	-0.000305	0.20294	-0.009766	-0.00473	-0.021362	-0.081787	-0.062103	-0.014648	-0.008087	0.11078	-0.029449	-0.033875	0.004272	-0.054779	-0.04837	0.024109	-0.10544	0.053101	-0.02655	0.031128	-0.052338	0.031586	0.018463	-0.18662	-0.012665	-0.00351	0.073853	0.000763	-0.014648
55.765	0.051575	0.14328	0.088196	0.007629	0.2121	0.14999	-0.019989	0.014801	-0.032654	-0.047607	-0.008545	-0.001984	0.096436	-0.02121	-0.017395	0.008087	-0.097351	-0.015869	0.064087	-0.088654	0.027313	0.035248	0.016479	-0.00946	0.021515	0.015106	0.39505	-0.018921	-0.21194	-0.068817	-0.005493	-0.021515
55.766	0.034027	0.080872	0.1564	0.023804	0.092773	0.35721	-0.056915	0.034027	0.043488	-0.019684	-0.012207	-0.001373	0.044861	-0.005341	-0.007324	0.006714	-0.10819	0.05188	0.042419	0.005646	0.11688	-0.002136	0.016937	-0.024414	0.036469	-0.000305	0.81711	-0.008087	-0.31647	-0.047455	-0.002289	-0.02243
55.767	0.018311	-0.047607	0.15778	0.012054	0.004272	0.53879	-0.103	0.036926	0.091248	-0.015717	0	0	-0.10986	-0.009766	-0.004425	0.012054	-0.074768	0.036926	0.088196	0.14954	0.098419	-0.00824	-0.017242	-0.019379	0.030518	-0.007629	0.58395	0.009155	-0.21301	0.036011	-0.001526	-0.026245
55.768	-0.002136	-0.032349	0.10437	0.010834	-0.045319	0.4837	-0.15823	0.037537	0.168	-0.001831	-0.015259	-0.005951	-0.075989	-0.00824	0.003357	0.010986	-0.049133	0.10223	-0.011444	0.19501	0.027008	-0.029755	-0.020905	-0.061493	0.034332	-0.020905	-0.42084	-0.000763	-0.064087	0.010529	-0.003357	-0.02182
55.769	-0.002441	-0.067139	0.063171	0.006714	-0.062714	0.29694	-0.18127	0.018921	0.29602	-0.017548	-0.014191	-0.002136	0.23178	0.021973	0.019073	0.00824	-0.028992	0.1062	0.062561	0.14954	-0.001678	-0.056	0.043793	-0.081024	0.056763	-0.016174	-0.93384	-0.005798	-0.044861	-0.071716	-0.00412	-0.013123
55.77	0.002899	-0.055084	-0.015717	0.007172	0.023193	0.17548	-0.25223	0.008087	0.45105	0.007782	0	0.006256	0.28641	0.021362	0.016327	0.002289	-0.025635	0.083466	0.05722	0.11017	-0.040436	-0.061493	0.000458	-0.087738	0.050812	-0.019531	-0.48401	-0.007782	0.042419	-0.16327	-0.003815	-0.009613
55.771	0.005798	-0.10941	-0.024872	0.006256	0.17014	0.049591	-0.15121	-0.018158	0.49744	-0.000916	-0.016632	-0.003204	0.046997	-0.010223	0.010834	0.011139	0.003204	0.15045	0.046997	0.068054	-0.075226	-0.14038	-0.050964	-0.078278	0.04303	-0.00946	-0.13153	-0.009155	0.27817	-0.28717	-0.003052	-0.002136
55.772	-0.01297	-0.15839	-0.11185	0.010834	0.13611	-0.14358	0.001526	-0.036469	0.19363	-0.007629	-0.016327	0.016022	-0.087433	0.026855	0.020599	0.010376	0.049591	0.11902	0.068817	0.029602	-0.09964	-0.15167	-0.044403	-0.054169	0.066681	-0.003967	0.17792	-0.010834	0.38467	-0.44876	-0.000305	-0.004272
55.773	-0.044098	-0.1741	-0.12192	-0.002899	0.023651	-0.08194	0.078125	0.001984	-0.15732	-0.03006	-0.030975	-0.003815	0.079651	0.045776	0.016327	0.005188	0.067291	0.19531	0.085144	0.037689	-0.12451	-0.16434	-0.010071	-0.080109	0.058136	0.003052	0.38422	-0.010681	0.29678	-0.39795	-0.000458	-0.004272
55.774	-0.044098	-0.19516	-0.13977	0.004578	-0.12772	-0.080261	0.09903	-0.017548	-0.40222	-0.023193	-0.020599	0.007629	-0.15305	0.043488	0.007477	-0.002289	0.052338	0.15793	0.099945	0.021973	-0.13367	-0.043182	0.027008	-0.088501	0.040894	-0.007324	0.040283	-0.009003	0.27466	-0.31876	-0.000763	-0.00412
55.775	-0.028839	-0.20081	-0.34012	0.008545	-0.2327	-0.28305	0.040283	0.004425	-0.56808	-0.026398	-0.011749	0.006409	-0.24826	0.059204	-0.007477	0.005188	0.033112	0.10834	-0.001068	0.044708	-0.096893	0.08606	0.003052	-0.054779	0.056763	-0.00061	-0.61859	-0.011597	0.242	-0.14603	-0.001373	0.001526
55.776	-0.021362	-0.17136	-0.43625	0.005188	-0.159	-0.50751	0.060272	-0.004272	-0.41855	0.013275	0.001221	-0.002289	-0.074921	0.005188	-0.047607	0.013733	0.013123	0.093842	-0.023956	0.021973	-0.06134	0.10208	-0.019989	-0.056	0.075226	-0.009918	-0.25894	-0.009155	-0.014496	0.18417	-0.002747	-0.016022
55.777	-0.019531	-0.16861	-0.40176	0.022736	-0.065765	-0.37155	0.074921	0.000763	-0.22797	-0.000916	-0.021057	0.009766	0.11032	-0.043335	-0.078278	0.008087	-0.046844	0.09552	0.002289	-0.06134	-0.075531	0.11887	-0.024109	-0.055542	0.056915	-0.024109	0.040588	-0.01358	-0.26947	0.33447	-0.007324	-0.016785
55.778	-0.015564	-0.14969	-0.15488	0.008087	-0.080872	-0.11108	0.071411	-0.008545	-0.12558	0.005188	-0.03418	0.014954	-0.005798	-0.035095	-0.050354	0.006866	-0.049896	0.074768	0.11993	-0.14496	-0.04364	0.05722	-0.035858	-0.095062	0.057373	-0.024109	0.043945	-0.014191	-0.22995	0.34897	-0.002747	-0.015717
55.779	0.016937	-0.099792	0.1741	-0.001221	-0.057678	-0.032959	0.00946	-0.033722	0.088348	0.004578	-0.002441	0.00885	-0.050049	0.01297	0.000916	0.013275	-0.033112	0.085297	0.15015	-0.16769	-0.019379	0.023499	-0.008392	-0.085144	0.074463	-0.021667	0.28763	-0.012817	-0.084991	0.35477	-0.002594	-0.011292
55.78	0.032043	-0.12161	0.27771	0.014191	-0.031738	-0.011597	-0.10269	-0.042877	0.22659	0.002747	-0.00061	0.007629	0.002289	0.074463	0.039215	0.015106	-0.016479	0.084534	0.069733	-0.24399	-0.000153	-0.028381	-0.065613	-0.066223	0.099182	-0.018616	0.26123	-0.009918	-0.040741	0.2919	-0.001984	-0.023804
55.781	0.038452	-0.15762	0.24643	0.012665	0.02594	0.08667	-0.15427	0.009766	0.27359	-0.00412	-0.035858	0.00824	-0.001526	0.080261	0.020294	0.020294	0.04837	0.039825	0.10635	-0.19852	0.032196	0.01236	-0.083466	-0.1149	0.095978	-0.028076	-0.34958	-0.01358	-0.055695	0.21896	-0.004578	-0.015869
55.782	0.029602	-0.059814	0.21179	0.001068	0.1915	0.1416	-0.076141	0.045319	0.2803	-0.035095	-0.007324	-0.001221	-0.013428	0.079498	-0.031891	0.019226	0.12848	0.033417	0.061951	-0.12238	0.05249	0.076904	-0.065155	-0.067139	0.077362	-0.024567	-0.52445	-0.013885	0.006104	0.1535	0.003357	-0.016479
55.783	0.001373	-0.055389	0.17868	0.004425	0.13992	-0.058746	0.024872	0.054016	0.25253	-0.025635	-0.018463	0.006866	0.05722	0.003967	-0.049744	0.035858	0.15259	0.041962	0.1561	0.070801	0.084534	0.14252	-0.054169	-0.04837	0.096436	-0.016479	-0.30334	-0.009003	0.16495	0.003662	-0.003967	-0.028687
55.784	-0.028839	-0.012665	0.079651	0.003662	-0.007477	-0.10819	0.048981	0.047607	0.32959	-0.023804	-0.026703	0.016022	0.075836	0.004272	-0.042725	0.02655	0.14236	0.093994	0.18814	0.25559	0.089417	0.11337	-0.052185	0.015106	0.073395	-0.011597	0.45654	-0.009308	0.30228	-0.088806	-0.002441	-0.021057
55.785	-0.033875	-0.007782	-0.003662	-0.002441	-0.082703	0.034027	-0.049286	0.032654	0.25009	0.002594	-0.004425	0.014191	0.030365	0.036163	-0.014038	0.039673	0.13031	0.097504	0.10071	0.31891	0.10239	0.074768	0.013733	0.020447	0.061188	-0.010376	0.5957	-0.011597	0.085907	-0.038757	-0.002441	-0.010834
55.786	-0.014496	0.013428	-0.071869	0.009766	-0.14923	0.073853	-0.024414	0.005951	0.11261	-0.009155	-0.041962	0.003357	-0.023041	0.027008	0.046082	0.035553	0.14435	0.074615	0.079193	0.34821	0.091553	-0.009155	0.007782	0.017395	0.052185	-0.004578	0.99823	-0.010223	-0.058746	-0.093231	0.00061	-0.008698
55.787	0.015411	-0.050812	-0.2449	-0.013275	-0.10498	0.01709	-0.041351	-0.032959	-0.12375	0.008392	-0.012054	0.003815	-0.017548	0.001068	0.074463	0.039978	0.12054	0.030212	0.078888	0.2214	0.0737	-0.055847	0.045319	0.03006	0.029602	-0.001068	0.43488	-0.013733	0.16449	-0.14603	-0.006104	-0.015717
55.788	0.032349	0.001068	-0.35278	0.00473	0.048981	-0.1944	-0.06958	-0.057831	-0.1976	0.021362	-0.0383	0.024567	-0.020294	-0.025787	0.027313	0.040588	0.057983	0.053101	0.10498	0.11932	0.041656	-0.004272	0.043335	0.09964	0.019531	-0.007782	-0.83969	-0.007172	0.22903	-0.087128	-0.003204	-0.009766
55.789	0.028839	0.12741	-0.29678	0.015259	0.15152	-0.54474	0.041199	-0.06073	-0.18127	0.009613	-0.082703	0.016632	-0.034485	0.009155	0.027313	0.035706	0.023804	0.097961	0.14297	0.030212	0.028381	0.070496	0.046539	0.080261	0.018921	-0.013123	-0.78095	-0.012207	0.13748	-0.056	-0.002594	-0.015259
55.79	0.027313	0.21729	0.021057	0.014343	0.13428	-0.35675	0.18921	-0.045319	-0.32577	0.012665	-0.019379	0.023346	-0.093079	0.008698	0.007782	0.051422	0.005798	0.14847	0.14938	-0.036011	0.036621	0.052032	0.079041	0.06134	-0.008698	-0.012665	-0.23285	-0.013428	0.087433	0.072784	-0.001221	-0.016174
55.791	0.016785	0.21683	0.15488	0.016022	0.14191	-0.10208	0.24979	-0.012817	-0.55618	-0.002899	0.027313	0.023956	-0.055542	-0.015869	-0.045471	0.05188	0.014343	0.068207	0.20401	-0.11002	0.08255	0.084991	0.046387	0.097961	-0.018311	-0.007782	-0.38864	-0.014191	0.06424	0.11002	-0.001678	-0.021362
55.792	0.010529	0.17166	0.08728	0.004578	0.11993	0.24811	0.23346	0.007172	-0.63919	0.012665	0.036316	0.017853	0.008087	-0.066681	-0.073242	0.055389	0.001221	0.060272	0.20584	-0.094147	0.079041	0.11826	0.024872	0.06485	-0.010834	-0.00412	-0.27023	-0.009155	0.004272	0.026245	-0.003357	-0.009308
55.793	0.003967	0.15762	0.099945	0.005035	0.0354	0.46722	0.16281	-0.012054	-0.51819	0.011292	0.042725	0.011597	-0.010681	-0.081177	-0.07019	0.055237	-0.033417	0.040283	0.15274	-0.069885	0.037537	0.013733	0.053253	0.09491	-0.021667	0.000763	-0.13412	-0.010681	-0.062256	0.0354	-0.003052	-0.010376
55.794	0.005646	0.1532	0.00412	-0.002747	-0.02594	0.61706	0.072327	0.001068	-0.29343	0.028229	0.024109	0.018616	-0.002594	-0.047607	0.005798	0.063171	-0.05188	0.040894	0.045319	-0.032959	-0.002289	-0.04837	0.006104	0.094604	0.015411	0.000763	-0.16968	-0.00824	-0.12131	0.14343	-0.009918	-0.021057
55.795	0.019073	0.15793	0.095215	0.006409	-0.001831	0.90698	-0.075989	-0.003815	-0.077972	0.015717	0.070496	0.015259	-0.013275	-0.007324	0.12131	0.055847	-0.07843	0.011902	0.010071	-0.007019	-0.031891	-0.062408	-0.010529	0.076294	-0.005798	-0.016022	-0.14404	-0.014191	-0.10513	0.22919	-0.001221	-0.017395
55.796	0.000763	0.21027	0.11047	0.008545	-0.012817	0.77972	-0.16159	-0.009308	0.10498	0.018463	0.12314	0.012817	-0.017242	0.03067	0.11612	0.072784	-0.0914	0.031891	0.1149	0.017548	-0.040436	-0.020142	-0.038757	0.028381	-0.006866	-0.021667	-0.12329	-0.009613	-0.063171	0.30472	-0.001526	-0.023346
55.797	-0.003052	0.17761	0.052185	0.015106	-0.0354	0.62882	-0.14099	-0.010681	0.27542	0.018463	0.13733	0.023499	0.027008	0.072174	0.053406	0.082703	-0.080872	0.006714	0.1181	-0.025787	-0.051575	-0.007477	-0.028534	-0.019531	-0.028839	-0.023804	-0.055389	-0.011139	0.097046	0.28473	-0.000305	-0.024567
55.798	0.026245	0.064697	0.04715	0.00824	0.014191	0.51041	-0.12528	-0.021973	0.05722	0.011902	0.097961	0.00946	-0.013428	0.065613	0.006409	0.073853	-0.063782	0.032349	0.045319	0.003662	-0.063477	0.025024	0.007019	-0.065155	-0.038452	-0.028381	-0.024567	-0.00885	0.19516	0.22537	-0.001526	-0.022583
55.799	0.033875	0.10849	0.062561	0.005493	0.097198	0.23224	-0.024109	-0.029755	-0.29511	0.032043	0.035706	0.016327	-0.1091	0.073547	0.002899	0.078888	-0.057373	0.037842	0.030823	0.020294	-0.068817	0.059814	-0.00351	-0.091248	-0.03006	-0.030518	0.065308	-0.008698	0.11154	0.25146	-0.000305	-0.033569
